<svg xmlns="http://www.w3.org/2000/svg" viewBox="0 0 93.8 35.5"><path d="M25.8 22.9l4.5 1.1c-1 3.7-2.7 6.6-5.1 8.5s-5.5 2.9-9.1 2.9c-3.7 0-6.7-.8-9-2.3S3 29.6 1.8 26.7 0 20.8 0 17.5c0-3.6.7-6.7 2.1-9.4S5.4 3.4 7.9 2s5.3-2 8.3-2c3.4 0 6.3.9 8.7 2.6s4 4.2 4.9 7.4l-4.5 1.1c-.8-2.5-2-4.3-3.5-5.5s-3.4-1.7-5.7-1.7c-2.6 0-4.8.6-6.6 1.9s-3 3-3.7 5.1-1.1 4.3-1.1 6.6c0 2.9.4 5.5 1.3 7.7s2.2 3.8 4 4.9 3.7 1.6 5.8 1.6c2.5 0 4.7-.7 6.5-2.2s2.9-3.7 3.5-6.6zM34.4 23.9l4.3-.4c.2 1.7.7 3.1 1.4 4.2s1.9 2 3.5 2.7 3.3 1 5.3 1c1.7 0 3.3-.3 4.6-.8s2.3-1.2 3-2.1 1-1.9 1-2.9c0-1.1-.3-2-.9-2.8s-1.7-1.5-3.1-2c-.9-.4-3-.9-6.1-1.7S42 17.6 40.8 17c-1.6-.9-2.9-1.9-3.7-3.2s-1.2-2.7-1.2-4.3c0-1.7.5-3.4 1.5-4.9s2.4-2.7 4.3-3.4S45.7 0 48 0c2.5 0 4.8.4 6.7 1.2s3.4 2 4.5 3.6 1.6 3.4 1.7 5.4l-4.4.3c-.2-2.2-1-3.8-2.4-4.9S50.7 4 48 4c-2.8 0-4.8.5-6 1.5s-1.9 2.2-1.9 3.6c0 1.2.4 2.2 1.3 3 .9.8 3.2 1.6 6.9 2.4s6.2 1.6 7.6 2.2c2 .9 3.5 2.1 4.4 3.5s1.4 3 1.4 4.9c0 1.8-.5 3.6-1.6 5.2s-2.6 2.9-4.5 3.8-4.2 1.3-6.6 1.3c-3.1 0-5.7-.5-7.8-1.4s-3.8-2.3-4.9-4.1-1.8-3.7-1.9-6zM66.4 23.9l4.3-.4c.2 1.7.7 3.1 1.4 4.2s1.9 2 3.5 2.7 3.3 1 5.3 1c1.7 0 3.3-.3 4.6-.8s2.3-1.2 3-2.1 1-1.9 1-2.9c0-1.1-.3-2-.9-2.8s-1.7-1.5-3.1-2c-.9-.4-3-.9-6.1-1.7S74 17.6 72.8 17c-1.8-.9-3-2-3.8-3.3s-1.2-2.7-1.2-4.3c0-1.7.5-3.4 1.5-4.9s2.4-2.7 4.3-3.4 4-1.2 6.3-1.2c2.5 0 4.8.4 6.7 1.2s3.4 2 4.5 3.6 1.6 3.4 1.7 5.4l-4.4.3c-.2-2.2-1-3.8-2.4-4.9S82.7 4 80 4c-2.8 0-4.8.5-6 1.5s-1.9 2.2-1.9 3.6c0 1.2.4 2.2 1.3 3 .9.8 3.2 1.6 6.9 2.4s6.2 1.6 7.6 2.2c2 .9 3.5 2.1 4.4 3.5s1.4 3 1.4 4.9c0 1.8-.5 3.6-1.6 5.2s-2.6 2.9-4.5 3.8-4.2 1.3-6.6 1.3c-3.1 0-5.7-.5-7.8-1.4s-3.8-2.3-4.9-4.1-1.8-3.7-1.9-6z"/></svg>