<svg xmlns="http://www.w3.org/2000/svg" viewBox="0 0 52.1 35.5"><path d="M0 25.2l4.1-.6c.1 2.6.6 4.4 1.5 5.4s2.1 1.5 3.6 1.5c1.1 0 2.1-.3 3-.8s1.4-1.2 1.7-2.1.5-2.3.5-4.3V.6h4.5V24c0 2.9-.3 5.1-1 6.7s-1.8 2.8-3.3 3.6-3.3 1.2-5.3 1.2c-3 0-5.3-.9-6.9-2.6S-.1 28.6 0 25.2zM24.8 23.9l4.3-.4c.2 1.7.7 3.1 1.4 4.2s1.9 2 3.5 2.7 3.3 1 5.3 1c1.7 0 3.3-.3 4.6-.8s2.3-1.2 3-2.1 1-1.9 1-2.9c0-1.1-.3-2-.9-2.8s-1.7-1.5-3.1-2c-.9-.4-3-.9-6.1-1.7s-5.4-1.5-6.6-2.1c-1.6-.9-2.9-1.9-3.7-3.2s-1.2-2.7-1.2-4.3c0-1.7.5-3.4 1.5-4.9S30 2 31.9 1.2s4-1.2 6.3-1.2c2.5 0 4.8.4 6.7 1.2s3.4 2 4.5 3.6 1.6 3.4 1.7 5.4l-4.4.3c-.2-2.2-1-3.8-2.4-4.9S41 4 38.4 4c-2.8 0-4.8.5-6 1.5s-1.9 2.2-1.9 3.6c0 1.2.4 2.2 1.3 3 .9.8 3.2 1.6 6.9 2.4s6.2 1.6 7.6 2.2c2 .9 3.5 2.1 4.4 3.5s1.4 3 1.4 4.9c0 1.8-.5 3.6-1.6 5.2s-2.5 3-4.5 3.9-4.2 1.3-6.6 1.3c-3.1 0-5.7-.5-7.8-1.4s-3.8-2.3-4.9-4.1-1.9-3.8-1.9-6.1z"/></svg>