<?xml version="1.0" encoding="utf-8"?>
<!-- Generator: Adobe Illustrator 21.0.2, SVG Export Plug-In . SVG Version: 6.00 Build 0)  -->
<svg version="1.1" id="Layer_1" xmlns="http://www.w3.org/2000/svg" xmlns:xlink="http://www.w3.org/1999/xlink" x="0px" y="0px"
	 viewBox="0 0 125.1 34.4" style="enable-background:new 0 0 125.1 34.4;" xml:space="preserve">
<g>
	<path d="M0,34.4V0h4.5v14.1h17.9V0H27v34.4h-4.5V18.2H4.5v16.2H0z"/>
	<path d="M43.3,34.4V4.1H31.9V0h27.2v4.1H47.8v30.3H43.3z"/>
	<path d="M63.7,34.4V0h6.8l8.1,24.3c0.8,2.3,1.3,4,1.6,5.1c0.4-1.2,1-3.1,1.8-5.5L90.4,0h6.1v34.4h-4.4V5.6l-10,28.8H78L68.1,5.1
		v29.2H63.7z"/>
	<path d="M103.6,34.4V0h4.5v30.3h16.9v4.1H103.6z"/>
</g>
</svg>
