<?xml version="1.0" encoding="utf-8"?>
<!-- Generator: Adobe Illustrator 21.0.2, SVG Export Plug-In . SVG Version: 6.00 Build 0)  -->
<svg version="1.1" id="Layer_1" xmlns="http://www.w3.org/2000/svg" xmlns:xlink="http://www.w3.org/1999/xlink" x="0px" y="0px"
	 viewBox="0 0 96.2 35.5" style="enable-background:new 0 0 96.2 35.5;" xml:space="preserve">
<g>
	<path d="M0,23.9l4.3-0.4c0.2,1.7,0.7,3.1,1.4,4.2s1.9,2,3.5,2.7s3.3,1,5.3,1c1.7,0,3.3-0.3,4.6-0.8s2.3-1.2,3-2.1s1-1.9,1-2.9
		c0-1.1-0.3-2-0.9-2.8s-1.7-1.5-3.1-2c-0.9-0.4-3-0.9-6.1-1.7s-5.4-1.5-6.6-2.1c-1.6-0.9-2.9-1.9-3.7-3.2S1.3,11,1.3,9.5
		c0-1.7,0.5-3.4,1.5-4.9S5.2,2,7.1,1.2s4-1.2,6.3-1.2c2.5,0,4.8,0.4,6.7,1.2s3.4,2,4.5,3.6s1.6,3.4,1.7,5.4L22,10.6
		c-0.2-2.2-1-3.8-2.4-4.9S16.2,4,13.6,4c-2.8,0-4.8,0.5-6,1.5S5.7,7.7,5.7,9.2c0,1.2,0.4,2.2,1.3,3c0.9,0.8,3.2,1.6,6.9,2.4
		s6.2,1.6,7.6,2.2c2,0.9,3.5,2.1,4.4,3.5s1.4,3,1.4,4.9c0,1.8-0.5,3.6-1.6,5.2s-2.6,2.9-4.5,3.8s-4.2,1.3-6.6,1.3
		c-3.1,0-5.7-0.5-7.8-1.4s-3.8-2.3-4.9-4.1S0.1,26.2,0,23.9z"/>
	<path d="M43.4,34.9L30.1,0.6H35l8.9,25c0.7,2,1.3,3.9,1.8,5.6c0.5-1.9,1.1-3.8,1.9-5.6l9.3-25h4.6L48,34.9H43.4z"/>
	<path d="M81.7,21.5v-4l14.6,0v12.8c-2.2,1.8-4.5,3.1-6.9,4s-4.8,1.3-7.3,1.3c-3.4,0-6.4-0.7-9.2-2.2s-4.8-3.5-6.2-6.3
		s-2.1-5.8-2.1-9.2c0-3.3,0.7-6.5,2.1-9.4s3.4-5.1,6-6.5S78.2,0,81.6,0c2.5,0,4.7,0.4,6.7,1.2s3.6,1.9,4.7,3.4s2,3.3,2.6,5.6
		l-4.1,1.1c-0.5-1.8-1.2-3.1-1.9-4.1s-1.9-1.8-3.3-2.4s-3-0.9-4.7-0.9c-2.1,0-3.9,0.3-5.4,0.9s-2.7,1.5-3.7,2.5s-1.7,2.2-2.2,3.4
		c-0.9,2.1-1.3,4.4-1.3,6.9c0,3.1,0.5,5.6,1.6,7.7s2.6,3.6,4.6,4.6s4.2,1.5,6.4,1.5c2,0,3.9-0.4,5.8-1.1s3.3-1.6,4.3-2.4v-6.4H81.7z
		"/>
</g>
</svg>
